<?xml version="1.0" encoding="UTF-8"?>
<svg version="1.1" xmlns="http://www.w3.org/2000/svg" width="167" height="50">
<path d="M0 0 C55.11 0 110.22 0 167 0 C167 16.5 167 33 167 50 C111.89 50 56.78 50 0 50 C0 33.5 0 17 0 0 Z " fill="#FCF3F2" transform="translate(0,0)"/>
<path d="M0 0 C0.33 0.99 0.66 1.98 1 3 C-1.84033067 7.86282294 -5.81420343 10.9009871 -11 13 C-9.02 13.66 -7.04 14.32 -5 15 C-5.875 19.75 -5.875 19.75 -7 22 C-7.66 21.67 -8.32 21.34 -9 21 C-8.67 19.35 -8.34 17.7 -8 16 C-10.64 15.34 -13.28 14.68 -16 14 C-16.3125 11.8125 -16.3125 11.8125 -16 9 C-11.84375931 3.9880627 -6.85749765 -0.80676443 0 0 Z " fill="#AEA9A8" transform="translate(60,4)"/>
<path d="M0 0 C0.66 0.33 1.32 0.66 2 1 C2 2.32 2 3.64 2 5 C2.598125 4.505 3.19625 4.01 3.8125 3.5 C6 2 6 2 9 2 C9.9375 4.625 9.9375 4.625 10 8 C6.90596687 11.88989714 3.79903375 13.80024156 -1 15 C-2.32 19.62 -3.64 24.24 -5 29 C-5.99 29 -6.98 29 -8 29 C-7.68912056 24.33680834 -6.61668185 20.9610728 -4.5625 16.75 C-1.93249715 11.26956053 -0.77786839 6.0023576 0 0 Z " fill="#E9E5E4" transform="translate(57,16)"/>
<path d="M0 0 C3.0625 0.3125 3.0625 0.3125 4.9375 1.625 C6.0625 3.3125 6.0625 3.3125 6.0625 6.3125 C5.4025 6.3125 4.7425 6.3125 4.0625 6.3125 C3.7325 5.6525 3.4025 4.9925 3.0625 4.3125 C1.08361039 3.58556096 -0.91704558 2.91433749 -2.9375 2.3125 C-1.53562175 5.78416708 -0.16140282 7.02627874 3.125 8.75 C6.91691285 10.99067578 6.91691285 10.99067578 8.25 13.9375 C8.0625 16.3125 8.0625 16.3125 6.8125 18.0625 C5.0625 19.3125 5.0625 19.3125 2.0625 20.3125 C-1.03220687 26.11838169 -1.54671501 32.85780999 -1.9375 39.3125 C-2.5975 38.9825 -3.2575 38.6525 -3.9375 38.3125 C-4.15505666 32.8735835 -4.04178384 28.44169186 -1.9375 23.3125 C-2.5975 22.9825 -3.2575 22.6525 -3.9375 22.3125 C-3.6075 21.6525 -3.2775 20.9925 -2.9375 20.3125 C-6.2375 19.3225 -9.5375 18.3325 -12.9375 17.3125 C-12.9375 16.9825 -12.9375 16.6525 -12.9375 16.3125 C-6.1875 16.1875 -6.1875 16.1875 -3.9375 17.3125 C0.71525976 17.6177622 0.71525976 17.6177622 5.0625 16.3125 C4.86381669 14.38183907 4.86381669 14.38183907 4.0625 12.3125 C2.24846127 10.93461873 2.24846127 10.93461873 0.0625 9.875 C-3.80481913 7.62945986 -3.80481913 7.62945986 -5.0625 4.625 C-4.86170121 0.91022238 -3.5553488 0.3782286 0 0 Z " fill="#E4BAC8" transform="translate(17.9375,5.6875)"/>
<path d="M0 0 C0.66 0 1.32 0 2 0 C1.65387682 7.96083321 -2.69287668 13.53931502 -7 20 C-7.44429438 22.04869074 -7.81294195 24.11454293 -8.125 26.1875 C-8.37636719 27.81751953 -8.37636719 27.81751953 -8.6328125 29.48046875 C-8.75398438 30.31191406 -8.87515625 31.14335938 -9 32 C-9.33 32 -9.66 32 -10 32 C-10 28.7 -10 25.4 -10 22 C-11.98 22.99 -11.98 22.99 -14 24 C-16.25 23.625 -16.25 23.625 -18 23 C-17.67 21.35 -17.34 19.7 -17 18 C-15.68 17.67 -14.36 17.34 -13 17 C-13.66666667 18.33333333 -14.33333333 19.66666667 -15 21 C-13.02 20.67 -11.04 20.34 -9 20 C-8.82984375 19.3709375 -8.6596875 18.741875 -8.484375 18.09375 C-4.68907563 4.68907563 -4.68907563 4.68907563 0 0 Z " fill="#726D6D" transform="translate(113,2)"/>
<path d="M0 0 C0.66 0.66 1.32 1.32 2 2 C1.75 4.0625 1.75 4.0625 1 6 C-2.96769422 7.98384711 -7.85529486 7.32630565 -12 6 C-12 6.33 -12 6.66 -12 7 C-14.31 7 -16.62 7 -19 7 C-18.875 5.1875 -18.875 5.1875 -18 3 C-12.99373591 -0.29680806 -5.81603579 -2.46063053 0 0 Z " fill="#FCE3EC" transform="translate(22,17)"/>
<path d="M0 0 C0.33 0 0.66 0 1 0 C1.33 1.65 1.66 3.3 2 5 C2.5775 4.319375 3.155 3.63875 3.75 2.9375 C4.4925 2.298125 5.235 1.65875 6 1 C8 1.375 8 1.375 10 2 C12.06669397 1.09166275 12.06669397 1.09166275 14 0 C14.99 0 15.98 0 17 0 C17 1.98 17 3.96 17 6 C17.66 6.33 18.32 6.66 19 7 C18.34 7.66 17.68 8.32 17 9 C16.01 9 15.02 9 14 9 C14 7.02 14 5.04 14 3 C9.65491693 4.86438808 9.65491693 4.86438808 6.4375 8.1875 C5.7259375 9.0846875 5.7259375 9.0846875 5 10 C2.3125 10.25 2.3125 10.25 0 10 C0 10.99 0 11.98 0 13 C-0.66 12.67 -1.32 12.34 -2 12 C-1.34 8.04 -0.68 4.08 0 0 Z " fill="#7F7C7A" transform="translate(118,18)"/>
<path d="M0 0 C0.66 0 1.32 0 2 0 C1.78177415 4.25540402 0.6821507 6.5590954 -1.875 9.8125 C-6.54123858 16.3183134 -6.98631559 24.25509541 -8 32 C-8.33 32 -8.66 32 -9 32 C-9 28.04 -9 24.08 -9 20 C-9.99 21.32 -10.98 22.64 -12 24 C-12.66 24 -13.32 24 -14 24 C-13.875 21.8125 -13.875 21.8125 -13 19 C-11.51426957 17.80495596 -10.02536426 16.61277319 -8.5 15.46875 C-5.79524293 12.82034203 -5.08748249 9.56452593 -4 6 C-3.34 6.33 -2.68 6.66 -2 7 C-0.5393715 4.35261084 0 3.10551666 0 0 Z " fill="#827E7D" transform="translate(100,3)"/>
<path d="M0 0 C0.99 0 1.98 0 3 0 C2.67 1.32 2.34 2.64 2 4 C6.95 2.515 6.95 2.515 12 1 C12 2.98 12 4.96 12 7 C12.99 7.33 13.98 7.66 15 8 C14.21625 7.835 13.4325 7.67 12.625 7.5 C8.60126409 6.73262437 8.60126409 6.73262437 5 9 C4.67 8.01 4.34 7.02 4 6 C2.35 6.33 0.7 6.66 -1 7 C-1.66 6.01 -2.32 5.02 -3 4 C-1.6875 2 -1.6875 2 0 0 Z " fill="#7B7876" transform="translate(140,19)"/>
<path d="M0 0 C0.804375 0.185625 1.60875 0.37125 2.4375 0.5625 C3.283125 0.706875 4.12875 0.85125 5 1 C5.33 0.67 5.66 0.34 6 0 C7.51928038 -0.07179964 9.04167482 -0.08392007 10.5625 -0.0625 C11.38878906 -0.05347656 12.21507813 -0.04445312 13.06640625 -0.03515625 C13.70449219 -0.02355469 14.34257813 -0.01195312 15 0 C14.34 1.65 13.68 3.3 13 5 C12.67 3.68 12.34 2.36 12 1 C9.7763932 2.9254644 9.7763932 2.9254644 9 6 C6.03 6 3.06 6 0 6 C0 4.02 0 2.04 0 0 Z " fill="#E2DDDC" transform="translate(61,36)"/>
<path d="M0 0 C5.63281599 -0.2396943 10.54538831 0.61470179 16 2 C15.54625 2.804375 15.0925 3.60875 14.625 4.4375 C11.88449453 10.44553123 10.66043438 16.37847046 11 23 C10.34 22.67 9.68 22.34 9 22 C8.78244334 16.5610835 8.89571616 12.12919186 11 7 C10.34 6.67 9.68 6.34 9 6 C9.33 5.34 9.66 4.68 10 4 C6.7 3.01 3.4 2.02 0 1 C0 0.67 0 0.34 0 0 Z " fill="#C5B1B7" transform="translate(5,22)"/>
<path d="M0 0 C3.66666667 0 7.33333333 0 11 0 C11.66 1.98 12.32 3.96 13 6 C11.68 5.34 10.36 4.68 9 4 C9 4.66 9 5.32 9 6 C5.65747276 6.07427838 3.1964086 6.06546953 0 5 C0 3.35 0 1.7 0 0 Z " fill="#DBD5D3" transform="translate(87,36)"/>
<path d="M0 0 C1.63129887 4.06285757 0.29968777 7.20102184 -0.9375 11.25 C-1.31777344 12.51328125 -1.69804688 13.7765625 -2.08984375 15.078125 C-2.39019531 16.04234375 -2.69054688 17.0065625 -3 18 C-3.99 18 -4.98 18 -6 18 C-5.55397709 11.30965634 -2.92654458 5.97187878 0 0 Z " fill="#7C7877" transform="translate(55,27)"/>
<path d="M0 0 C2.69082872 0.17635452 5.32851446 0.61835921 8 1 C7.67 2.98 7.34 4.96 7 7 C4.36 7 1.72 7 -1 7 C-1.04254356 5.00045254 -1.04080783 2.99958364 -1 1 C-0.67 0.67 -0.34 0.34 0 0 Z " fill="#D4CECD" transform="translate(78,35)"/>
<path d="M0 0 C1.0725 0.01417969 2.145 0.02835938 3.25 0.04296875 C4.3225 0.04941406 5.395 0.05585938 6.5 0.0625 C9.25 0.23046875 9.25 0.23046875 11.25 1.23046875 C10.92 2.22046875 10.59 3.21046875 10.25 4.23046875 C4.8314234 4.45624277 0.47512279 3.69716988 -4.75 2.23046875 C-2.75 0.23046875 -2.75 0.23046875 0 0 Z " fill="#E9B2C5" transform="translate(10.75,17.76953125)"/>
<path d="M0 0 C0.66 0 1.32 0 2 0 C1.53574151 5.68716647 0.22534691 9.25684278 -3 14 C-3.99 14.33 -4.98 14.66 -6 15 C-4.36041242 9.76727367 -2.61047965 4.84803364 0 0 Z " fill="#BCB8B7" transform="translate(113,2)"/>
<path d="M0 0 C0.66 0 1.32 0 2 0 C2 1.65 2 3.3 2 5 C1.34 4.67 0.68 4.34 0 4 C-0.93423645 7.01031744 -1.04449911 7.86650268 0 11 C-1.875 14.1875 -1.875 14.1875 -4 17 C-4.33 17 -4.66 17 -5 17 C-4.72740991 10.22613615 -3.80946641 5.65275661 0 0 Z " fill="#686462" transform="translate(124,1)"/>
<path d="M0 0 C0.33 0.99 0.66 1.98 1 3 C1.66 3.33 2.32 3.66 3 4 C-0.13498292 5.85776765 -2.37471432 6.20140476 -6 6 C-6 5.34 -6 4.68 -6 4 C-6.99 3.67 -7.98 3.34 -9 3 C-2.25 0 -2.25 0 0 0 Z " fill="#7D7979" transform="translate(76,19)"/>
<path d="M0 0 C2.97 0.495 2.97 0.495 6 1 C6.33 1.99 6.66 2.98 7 4 C7.66 4 8.32 4 9 4 C9 4.66 9 5.32 9 6 C8.01 6.33 7.02 6.66 6 7 C2.8125 5.25 2.8125 5.25 0 3 C0 2.01 0 1.02 0 0 Z " fill="#F6E6EA" transform="translate(15,8)"/>
<path d="M0 0 C0 1.98 0 3.96 0 6 C0.66 6.33 1.32 6.66 2 7 C1.34 7.66 0.68 8.32 0 9 C-0.99 9 -1.98 9 -3 9 C-3 7.02 -3 5.04 -3 3 C-4.32 3.33 -5.64 3.66 -7 4 C-7 3.34 -7 2.68 -7 2 C-4.35261084 0.5393715 -3.10551666 0 0 0 Z " fill="#8C8987" transform="translate(135,18)"/>
<path d="M0 0 C0.99 0 1.98 0 3 0 C2.67 1.32 2.34 2.64 2 4 C2.99 4.33 3.98 4.66 5 5 C2 7 2 7 -0.125 6.75 C-2 6 -2 6 -3 4 C-1.6875 2 -1.6875 2 0 0 Z " fill="#8C8886" transform="translate(140,19)"/>
<path d="M0 0 C0.99 0 1.98 0 3 0 C3.9375 2.625 3.9375 2.625 4 6 C2.03297014 8.51004092 -0.19026696 10.48298027 -3 12 C-3.99 11.67 -4.98 11.34 -6 11 C-4.5459375 9.88625 -4.5459375 9.88625 -3.0625 8.75 C-0.97612639 7.02690085 -0.09887521 6.26131306 0.875 3.6875 C0.91625 3.130625 0.9575 2.57375 1 2 C0.34 1.67 -0.32 1.34 -1 1 C-0.67 0.67 -0.34 0.34 0 0 Z " fill="#5C5756" transform="translate(63,18)"/>
<path d="M0 0 C5.47826087 -0.36521739 5.47826087 -0.36521739 7.875 1.3125 C9 3 9 3 9 6 C8.34 6 7.68 6 7 6 C6.67 5.34 6.34 4.68 6 4 C3.67843403 3.59270772 1.3431213 3.25561323 -1 3 C-0.67 2.01 -0.34 1.02 0 0 Z " fill="#AD8895" transform="translate(15,6)"/>
<path d="M0 0 C0.99 0 1.98 0 3 0 C2 2 2 2 1 4 C2.98 3.67 4.96 3.34 7 3 C5 6 5 6 1.875 6.6875 C0.92625 6.790625 -0.0225 6.89375 -1 7 C-1.625 5.1875 -1.625 5.1875 -2 3 C-1.34 2.01 -0.68 1.02 0 0 Z " fill="#83807F" transform="translate(97,19)"/>
<path d="M0 0 C0.66 0.33 1.32 0.66 2 1 C2 2.32 2 3.64 2 5 C2.99 5 3.98 5 5 5 C3.35830472 7.02054804 1.69088222 9.02043058 0 11 C-0.33 11 -0.66 11 -1 11 C-1.14285714 3.57142857 -1.14285714 3.57142857 0 0 Z " fill="#817E7C" transform="translate(57,16)"/>
<path d="M0 0 C2.97 0 5.94 0 9 0 C8.34 1.65 7.68 3.3 7 5 C6.67 3.68 6.34 2.36 6 1 C3.94729537 2.84188612 3.94729537 2.84188612 3 5 C2.01 4.34 1.02 3.68 0 3 C0 2.01 0 1.02 0 0 Z " fill="#C2BDBC" transform="translate(67,36)"/>
<path d="M0 0 C0.66 0 1.32 0 2 0 C1.62671065 5.35048061 0.0042343 7.50912907 -4 11 C-4.33 10.01 -4.66 9.02 -5 8 C-4.34 7.34 -3.68 6.68 -3 6 C-2.67 6.33 -2.34 6.66 -2 7 C-0.5393715 4.35261084 0 3.10551666 0 0 Z " fill="#9D9898" transform="translate(100,3)"/>
<path d="M0 0 C2.475 0.495 2.475 0.495 5 1 C5 2.65 5 4.3 5 6 C4.67 5.34 4.34 4.68 4 4 C2.68 4.33 1.36 4.66 0 5 C0 3.35 0 1.7 0 0 Z " fill="#C0BBBA" transform="translate(115,36)"/>
<path d="M0 0 C0.66 0 1.32 0 2 0 C2 0.99 2 1.98 2 3 C2.66 3 3.32 3 4 3 C4 3.99 4 4.98 4 6 C2.35 5.67 0.7 5.34 -1 5 C-0.67 3.35 -0.34 1.7 0 0 Z " fill="#C0BBB8" transform="translate(106,36)"/>
<path d="M0 0 C0.99 0 1.98 0 3 0 C2.34 2.31 1.68 4.62 1 7 C0.01 6.01 -0.98 5.02 -2 4 C-1.34 2.68 -0.68 1.36 0 0 Z " fill="#E5E1E0" transform="translate(13,29)"/>
<path d="M0 0 C1.98 0 3.96 0 6 0 C5.34 1.32 4.68 2.64 4 4 C4.66 4.66 5.32 5.32 6 6 C3.03 5.505 3.03 5.505 0 5 C0 3.35 0 1.7 0 0 Z " fill="#C4BCBC" transform="translate(87,36)"/>
<path d="M0 0 C0.7425 0.0825 1.485 0.165 2.25 0.25 C-1.07307692 4.18846154 -1.07307692 4.18846154 -4.5 4.5 C-5.2425 4.4175 -5.985 4.335 -6.75 4.25 C-3.42692308 0.31153846 -3.42692308 0.31153846 0 0 Z " fill="#74716F" transform="translate(48.75,25.75)"/>
<path d="M0 0 C3 0 3 0 6 1 C5.34 2.65 4.68 4.3 4 6 C3.01 6 2.02 6 1 6 C0.4465236 3.92446352 0 2.15634036 0 0 Z " fill="#CBC4C3" transform="translate(136,36)"/>
<path d="M0 0 C0.66 0.66 1.32 1.32 2 2 C-1.61328125 6.6875 -1.61328125 6.6875 -3 8 C-3.99 8 -4.98 8 -6 8 C-4.768606 4.30581799 -2.79208646 2.64890254 0 0 Z " fill="#5B5856" transform="translate(126,20)"/>
<path d="M0 0 C0.66 0 1.32 0 2 0 C1.67 2.31 1.34 4.62 1 7 C0.01 7.33 -0.98 7.66 -2 8 C-1.47731534 5.23723823 -0.89130413 2.6739124 0 0 Z " fill="#B0ADAC" transform="translate(113,2)"/>
<path d="M0 0 C1.32 0.33 2.64 0.66 4 1 C4 1.66 4 2.32 4 3 C3.34 3 2.68 3 2 3 C2 3.66 2 4.32 2 5 C2.99 5.33 3.98 5.66 5 6 C3.35 6 1.7 6 0 6 C0 4.02 0 2.04 0 0 Z " fill="#C1BCBB" transform="translate(61,36)"/>
<path d="M0 0 C1.65 0.33 3.3 0.66 5 1 C5.33 1.99 5.66 2.98 6 4 C3.69 4 1.38 4 -1 4 C-0.67 2.68 -0.34 1.36 0 0 Z " fill="#F5D9E2" transform="translate(4,20)"/>
<path d="M0 0 C0.66 0 1.32 0 2 0 C2 1.98 2 3.96 2 6 C2.99 6.33 3.98 6.66 5 7 C3.35 6.67 1.7 6.34 0 6 C-0.38218767 4.34385343 -0.71395102 2.67542976 -1 1 C-0.67 0.67 -0.34 0.34 0 0 Z " fill="#75706F" transform="translate(150,20)"/>
</svg>
